<mxfile host="app.diagrams.net" modified="2021-03-24T22:24:19.673Z" agent="5.0 (Windows NT 10.0; Win64; x64) AppleWebKit/537.36 (KHTML, like Gecko) Chrome/89.0.4389.90 Safari/537.36" etag="bqESzgfrlITi--MzWZfi" version="14.5.0" type="github" pages="3">
  <diagram id="C5RBs43oDa-KdzZeNtuy" name="Page-1">
    <mxGraphModel dx="1422" dy="762" grid="1" gridSize="10" guides="1" tooltips="1" connect="1" arrows="1" fold="1" page="1" pageScale="1" pageWidth="827" pageHeight="1169" math="0" shadow="0">
      <root>
        <mxCell id="WIyWlLk6GJQsqaUBKTNV-0" />
        <mxCell id="WIyWlLk6GJQsqaUBKTNV-1" parent="WIyWlLk6GJQsqaUBKTNV-0" />
        <mxCell id="WIyWlLk6GJQsqaUBKTNV-2" value="" style="rounded=0;html=1;jettySize=auto;orthogonalLoop=1;fontSize=11;endArrow=block;endFill=0;endSize=8;strokeWidth=1;shadow=0;labelBackgroundColor=none;edgeStyle=orthogonalEdgeStyle;entryX=0.5;entryY=0;entryDx=0;entryDy=0;" parent="WIyWlLk6GJQsqaUBKTNV-1" source="WIyWlLk6GJQsqaUBKTNV-3" target="WIyWlLk6GJQsqaUBKTNV-7" edge="1">
          <mxGeometry relative="1" as="geometry">
            <mxPoint x="220" y="160" as="sourcePoint" />
            <mxPoint x="220" y="160" as="targetPoint" />
          </mxGeometry>
        </mxCell>
        <mxCell id="WIyWlLk6GJQsqaUBKTNV-3" value="Login" style="rounded=1;whiteSpace=wrap;html=1;fontSize=12;glass=0;strokeWidth=1;shadow=0;" parent="WIyWlLk6GJQsqaUBKTNV-1" vertex="1">
          <mxGeometry x="290" y="50" width="120" height="40" as="geometry" />
        </mxCell>
        <mxCell id="hX3yO68MR4rOiRZ_AVbT-5" style="edgeStyle=orthogonalEdgeStyle;rounded=0;orthogonalLoop=1;jettySize=auto;html=1;entryX=1;entryY=0.5;entryDx=0;entryDy=0;" parent="WIyWlLk6GJQsqaUBKTNV-1" source="WIyWlLk6GJQsqaUBKTNV-7" target="hX3yO68MR4rOiRZ_AVbT-4" edge="1">
          <mxGeometry relative="1" as="geometry" />
        </mxCell>
        <mxCell id="hX3yO68MR4rOiRZ_AVbT-6" style="edgeStyle=orthogonalEdgeStyle;rounded=0;orthogonalLoop=1;jettySize=auto;html=1;entryX=0;entryY=0.5;entryDx=0;entryDy=0;" parent="WIyWlLk6GJQsqaUBKTNV-1" source="WIyWlLk6GJQsqaUBKTNV-7" target="WIyWlLk6GJQsqaUBKTNV-12" edge="1">
          <mxGeometry relative="1" as="geometry" />
        </mxCell>
        <mxCell id="hX3yO68MR4rOiRZ_AVbT-7" style="edgeStyle=orthogonalEdgeStyle;rounded=0;orthogonalLoop=1;jettySize=auto;html=1;entryX=0.5;entryY=0;entryDx=0;entryDy=0;" parent="WIyWlLk6GJQsqaUBKTNV-1" source="WIyWlLk6GJQsqaUBKTNV-7" target="hX3yO68MR4rOiRZ_AVbT-3" edge="1">
          <mxGeometry relative="1" as="geometry">
            <mxPoint x="500" y="310" as="targetPoint" />
            <Array as="points">
              <mxPoint x="500" y="200" />
            </Array>
          </mxGeometry>
        </mxCell>
        <mxCell id="hX3yO68MR4rOiRZ_AVbT-8" style="edgeStyle=orthogonalEdgeStyle;rounded=0;orthogonalLoop=1;jettySize=auto;html=1;exitX=0;exitY=0.5;exitDx=0;exitDy=0;" parent="WIyWlLk6GJQsqaUBKTNV-1" source="WIyWlLk6GJQsqaUBKTNV-7" target="hX3yO68MR4rOiRZ_AVbT-2" edge="1">
          <mxGeometry relative="1" as="geometry" />
        </mxCell>
        <mxCell id="WIyWlLk6GJQsqaUBKTNV-7" value="Tela de agendamentos" style="rounded=1;whiteSpace=wrap;html=1;fontSize=12;glass=0;strokeWidth=1;shadow=0;" parent="WIyWlLk6GJQsqaUBKTNV-1" vertex="1">
          <mxGeometry x="290" y="180" width="120" height="40" as="geometry" />
        </mxCell>
        <mxCell id="WIyWlLk6GJQsqaUBKTNV-12" value="Gerenciamento de agenda" style="rounded=1;whiteSpace=wrap;html=1;fontSize=12;glass=0;strokeWidth=1;shadow=0;" parent="WIyWlLk6GJQsqaUBKTNV-1" vertex="1">
          <mxGeometry x="600" y="180" width="120" height="40" as="geometry" />
        </mxCell>
        <mxCell id="hX3yO68MR4rOiRZ_AVbT-1" value="ADM" style="text;html=1;strokeColor=none;fillColor=none;align=center;verticalAlign=middle;whiteSpace=wrap;rounded=0;" parent="WIyWlLk6GJQsqaUBKTNV-1" vertex="1">
          <mxGeometry x="330" y="10" width="40" height="20" as="geometry" />
        </mxCell>
        <mxCell id="hX3yO68MR4rOiRZ_AVbT-2" value="Gerenciamento de Procedimentos" style="rounded=1;whiteSpace=wrap;html=1;fontSize=12;glass=0;strokeWidth=1;shadow=0;" parent="WIyWlLk6GJQsqaUBKTNV-1" vertex="1">
          <mxGeometry x="160" y="330" width="120" height="40" as="geometry" />
        </mxCell>
        <mxCell id="hX3yO68MR4rOiRZ_AVbT-3" value="Confirmação de agendamento" style="rounded=1;whiteSpace=wrap;html=1;fontSize=12;glass=0;strokeWidth=1;shadow=0;" parent="WIyWlLk6GJQsqaUBKTNV-1" vertex="1">
          <mxGeometry x="440" y="330" width="120" height="40" as="geometry" />
        </mxCell>
        <mxCell id="hX3yO68MR4rOiRZ_AVbT-4" value="Gerenciamento de Usuário" style="rounded=1;whiteSpace=wrap;html=1;fontSize=12;glass=0;strokeWidth=1;shadow=0;" parent="WIyWlLk6GJQsqaUBKTNV-1" vertex="1">
          <mxGeometry x="30" y="180" width="120" height="40" as="geometry" />
        </mxCell>
      </root>
    </mxGraphModel>
  </diagram>
  <diagram id="N0iJGrWZB-pdCUYvwzZ9" name="Page-2">
    <mxGraphModel dx="1422" dy="762" grid="1" gridSize="10" guides="1" tooltips="1" connect="1" arrows="1" fold="1" page="1" pageScale="1" pageWidth="827" pageHeight="1169" math="0" shadow="0">
      <root>
        <mxCell id="-p48QDgi5zYnXb5YcY8m-0" />
        <mxCell id="-p48QDgi5zYnXb5YcY8m-1" parent="-p48QDgi5zYnXb5YcY8m-0" />
        <mxCell id="-p48QDgi5zYnXb5YcY8m-9" style="edgeStyle=orthogonalEdgeStyle;rounded=0;orthogonalLoop=1;jettySize=auto;html=1;entryX=0.5;entryY=0;entryDx=0;entryDy=0;entryPerimeter=0;" parent="-p48QDgi5zYnXb5YcY8m-1" source="-p48QDgi5zYnXb5YcY8m-2" target="-p48QDgi5zYnXb5YcY8m-4" edge="1">
          <mxGeometry relative="1" as="geometry">
            <mxPoint x="400" y="70" as="targetPoint" />
          </mxGeometry>
        </mxCell>
        <mxCell id="-p48QDgi5zYnXb5YcY8m-2" value="Cliente" style="text;html=1;strokeColor=none;fillColor=none;align=center;verticalAlign=middle;whiteSpace=wrap;rounded=0;" parent="-p48QDgi5zYnXb5YcY8m-1" vertex="1">
          <mxGeometry x="380" y="20" width="40" height="20" as="geometry" />
        </mxCell>
        <mxCell id="-p48QDgi5zYnXb5YcY8m-22" style="edgeStyle=orthogonalEdgeStyle;rounded=0;orthogonalLoop=1;jettySize=auto;html=1;entryX=0.5;entryY=0;entryDx=0;entryDy=0;" parent="-p48QDgi5zYnXb5YcY8m-1" source="-p48QDgi5zYnXb5YcY8m-4" target="-p48QDgi5zYnXb5YcY8m-10" edge="1">
          <mxGeometry relative="1" as="geometry" />
        </mxCell>
        <mxCell id="-p48QDgi5zYnXb5YcY8m-4" value="LOGIN" style="rounded=1;whiteSpace=wrap;html=1;" parent="-p48QDgi5zYnXb5YcY8m-1" vertex="1">
          <mxGeometry x="340" y="80" width="120" height="30" as="geometry" />
        </mxCell>
        <mxCell id="-p48QDgi5zYnXb5YcY8m-7" style="edgeStyle=orthogonalEdgeStyle;rounded=0;orthogonalLoop=1;jettySize=auto;html=1;entryX=0.5;entryY=0;entryDx=0;entryDy=0;" parent="-p48QDgi5zYnXb5YcY8m-1" source="-p48QDgi5zYnXb5YcY8m-6" target="-p48QDgi5zYnXb5YcY8m-8" edge="1">
          <mxGeometry relative="1" as="geometry">
            <mxPoint x="400" y="340" as="targetPoint" />
          </mxGeometry>
        </mxCell>
        <mxCell id="-p48QDgi5zYnXb5YcY8m-6" value="Gerenciamento de Agendamentos" style="rounded=1;whiteSpace=wrap;html=1;" parent="-p48QDgi5zYnXb5YcY8m-1" vertex="1">
          <mxGeometry x="340" y="320" width="120" height="40" as="geometry" />
        </mxCell>
        <mxCell id="-p48QDgi5zYnXb5YcY8m-8" value="Gerenciamento de Dados" style="rounded=1;whiteSpace=wrap;html=1;" parent="-p48QDgi5zYnXb5YcY8m-1" vertex="1">
          <mxGeometry x="340" y="470" width="120" height="30" as="geometry" />
        </mxCell>
        <mxCell id="-p48QDgi5zYnXb5YcY8m-13" style="edgeStyle=orthogonalEdgeStyle;rounded=0;orthogonalLoop=1;jettySize=auto;html=1;entryX=1;entryY=0.5;entryDx=0;entryDy=0;" parent="-p48QDgi5zYnXb5YcY8m-1" source="-p48QDgi5zYnXb5YcY8m-10" target="-p48QDgi5zYnXb5YcY8m-14" edge="1">
          <mxGeometry relative="1" as="geometry">
            <mxPoint x="220" y="175" as="targetPoint" />
          </mxGeometry>
        </mxCell>
        <mxCell id="-p48QDgi5zYnXb5YcY8m-17" style="edgeStyle=orthogonalEdgeStyle;rounded=0;orthogonalLoop=1;jettySize=auto;html=1;entryX=0.5;entryY=0;entryDx=0;entryDy=0;" parent="-p48QDgi5zYnXb5YcY8m-1" source="-p48QDgi5zYnXb5YcY8m-10" target="-p48QDgi5zYnXb5YcY8m-6" edge="1">
          <mxGeometry relative="1" as="geometry" />
        </mxCell>
        <mxCell id="-p48QDgi5zYnXb5YcY8m-10" value="Já Possui Acesso?" style="rhombus;whiteSpace=wrap;html=1;" parent="-p48QDgi5zYnXb5YcY8m-1" vertex="1">
          <mxGeometry x="360" y="170" width="80" height="70" as="geometry" />
        </mxCell>
        <mxCell id="-p48QDgi5zYnXb5YcY8m-12" value="SIM" style="text;html=1;strokeColor=none;fillColor=none;align=center;verticalAlign=middle;whiteSpace=wrap;rounded=0;" parent="-p48QDgi5zYnXb5YcY8m-1" vertex="1">
          <mxGeometry x="340" y="260" width="40" height="20" as="geometry" />
        </mxCell>
        <mxCell id="-p48QDgi5zYnXb5YcY8m-23" style="edgeStyle=orthogonalEdgeStyle;rounded=0;orthogonalLoop=1;jettySize=auto;html=1;entryX=0;entryY=0.5;entryDx=0;entryDy=0;exitX=0.425;exitY=-0.133;exitDx=0;exitDy=0;exitPerimeter=0;" parent="-p48QDgi5zYnXb5YcY8m-1" source="-p48QDgi5zYnXb5YcY8m-14" target="-p48QDgi5zYnXb5YcY8m-4" edge="1">
          <mxGeometry relative="1" as="geometry">
            <mxPoint x="150" y="150" as="sourcePoint" />
            <Array as="points">
              <mxPoint x="150" y="186" />
              <mxPoint x="150" y="95" />
            </Array>
          </mxGeometry>
        </mxCell>
        <mxCell id="-p48QDgi5zYnXb5YcY8m-14" value="Cadastramento" style="rounded=1;whiteSpace=wrap;html=1;" parent="-p48QDgi5zYnXb5YcY8m-1" vertex="1">
          <mxGeometry x="100" y="190" width="120" height="30" as="geometry" />
        </mxCell>
        <mxCell id="-p48QDgi5zYnXb5YcY8m-16" value="NÃO" style="text;html=1;strokeColor=none;fillColor=none;align=center;verticalAlign=middle;whiteSpace=wrap;rounded=0;" parent="-p48QDgi5zYnXb5YcY8m-1" vertex="1">
          <mxGeometry x="280" y="170" width="40" height="20" as="geometry" />
        </mxCell>
      </root>
    </mxGraphModel>
  </diagram>
  <diagram id="KQi53x594J5msQ9mnAOo" name="Page-3">
    <mxGraphModel dx="1422" dy="762" grid="1" gridSize="10" guides="1" tooltips="1" connect="1" arrows="1" fold="1" page="1" pageScale="1" pageWidth="827" pageHeight="1169" math="0" shadow="0">
      <root>
        <mxCell id="FF0e6TVer2KwmjMnXrAM-0" />
        <mxCell id="FF0e6TVer2KwmjMnXrAM-1" parent="FF0e6TVer2KwmjMnXrAM-0" />
        <mxCell id="TLhUrYgqsDNyq-JFWt0F-1" value="" style="whiteSpace=wrap;html=1;aspect=fixed;" vertex="1" parent="FF0e6TVer2KwmjMnXrAM-1">
          <mxGeometry x="170" y="160" width="780" height="780" as="geometry" />
        </mxCell>
        <mxCell id="TLhUrYgqsDNyq-JFWt0F-8" style="edgeStyle=orthogonalEdgeStyle;rounded=0;orthogonalLoop=1;jettySize=auto;html=1;" edge="1" parent="FF0e6TVer2KwmjMnXrAM-1" source="TLhUrYgqsDNyq-JFWt0F-0" target="TLhUrYgqsDNyq-JFWt0F-6">
          <mxGeometry relative="1" as="geometry">
            <Array as="points">
              <mxPoint x="120" y="425" />
              <mxPoint x="120" y="270" />
            </Array>
          </mxGeometry>
        </mxCell>
        <mxCell id="31-FXK8BHHbwHSvv0eOy-2" style="edgeStyle=orthogonalEdgeStyle;rounded=0;orthogonalLoop=1;jettySize=auto;html=1;entryX=0;entryY=0.5;entryDx=0;entryDy=0;" edge="1" parent="FF0e6TVer2KwmjMnXrAM-1" source="TLhUrYgqsDNyq-JFWt0F-0" target="TLhUrYgqsDNyq-JFWt0F-10">
          <mxGeometry relative="1" as="geometry">
            <Array as="points">
              <mxPoint x="180" y="440" />
              <mxPoint x="180" y="440" />
            </Array>
          </mxGeometry>
        </mxCell>
        <mxCell id="31-FXK8BHHbwHSvv0eOy-3" style="edgeStyle=orthogonalEdgeStyle;rounded=0;orthogonalLoop=1;jettySize=auto;html=1;entryX=-0.007;entryY=0.625;entryDx=0;entryDy=0;entryPerimeter=0;" edge="1" parent="FF0e6TVer2KwmjMnXrAM-1" source="TLhUrYgqsDNyq-JFWt0F-0" target="TLhUrYgqsDNyq-JFWt0F-9">
          <mxGeometry relative="1" as="geometry">
            <mxPoint x="270" y="425" as="targetPoint" />
            <Array as="points">
              <mxPoint x="120" y="425" />
              <mxPoint x="120" y="610" />
            </Array>
          </mxGeometry>
        </mxCell>
        <mxCell id="31-FXK8BHHbwHSvv0eOy-4" style="edgeStyle=orthogonalEdgeStyle;rounded=0;orthogonalLoop=1;jettySize=auto;html=1;entryX=0;entryY=0.5;entryDx=0;entryDy=0;" edge="1" parent="FF0e6TVer2KwmjMnXrAM-1" source="TLhUrYgqsDNyq-JFWt0F-0" target="TLhUrYgqsDNyq-JFWt0F-11">
          <mxGeometry relative="1" as="geometry">
            <Array as="points">
              <mxPoint x="120" y="425" />
              <mxPoint x="120" y="780" />
            </Array>
          </mxGeometry>
        </mxCell>
        <mxCell id="TLhUrYgqsDNyq-JFWt0F-0" value="Usuário" style="shape=umlActor;verticalLabelPosition=bottom;verticalAlign=top;html=1;outlineConnect=0;" vertex="1" parent="FF0e6TVer2KwmjMnXrAM-1">
          <mxGeometry x="40" y="395" width="30" height="60" as="geometry" />
        </mxCell>
        <mxCell id="TLhUrYgqsDNyq-JFWt0F-6" value="LOGIN" style="ellipse;whiteSpace=wrap;html=1;" vertex="1" parent="FF0e6TVer2KwmjMnXrAM-1">
          <mxGeometry x="290" y="230" width="149" height="80" as="geometry" />
        </mxCell>
        <mxCell id="TLhUrYgqsDNyq-JFWt0F-9" value="Gerenciamento de Dados" style="ellipse;whiteSpace=wrap;html=1;" vertex="1" parent="FF0e6TVer2KwmjMnXrAM-1">
          <mxGeometry x="290" y="560" width="149" height="80" as="geometry" />
        </mxCell>
        <mxCell id="TLhUrYgqsDNyq-JFWt0F-10" value="Gerenciamento de Agendamentos" style="ellipse;whiteSpace=wrap;html=1;" vertex="1" parent="FF0e6TVer2KwmjMnXrAM-1">
          <mxGeometry x="290" y="400" width="149" height="80" as="geometry" />
        </mxCell>
        <mxCell id="TLhUrYgqsDNyq-JFWt0F-11" value="Cadastramento" style="ellipse;whiteSpace=wrap;html=1;" vertex="1" parent="FF0e6TVer2KwmjMnXrAM-1">
          <mxGeometry x="290" y="740" width="149" height="80" as="geometry" />
        </mxCell>
        <mxCell id="VUGS7VoSHkl5h5b0ff80-1" style="edgeStyle=orthogonalEdgeStyle;rounded=0;orthogonalLoop=1;jettySize=auto;html=1;entryX=1;entryY=0.425;entryDx=0;entryDy=0;entryPerimeter=0;" edge="1" parent="FF0e6TVer2KwmjMnXrAM-1" source="31-FXK8BHHbwHSvv0eOy-0" target="31-FXK8BHHbwHSvv0eOy-8">
          <mxGeometry relative="1" as="geometry">
            <Array as="points">
              <mxPoint x="1020" y="425" />
              <mxPoint x="1020" y="214" />
            </Array>
          </mxGeometry>
        </mxCell>
        <mxCell id="VUGS7VoSHkl5h5b0ff80-2" style="edgeStyle=orthogonalEdgeStyle;rounded=0;orthogonalLoop=1;jettySize=auto;html=1;entryX=1;entryY=0.5;entryDx=0;entryDy=0;" edge="1" parent="FF0e6TVer2KwmjMnXrAM-1" source="31-FXK8BHHbwHSvv0eOy-0" target="31-FXK8BHHbwHSvv0eOy-9">
          <mxGeometry relative="1" as="geometry">
            <Array as="points">
              <mxPoint x="1020" y="425" />
              <mxPoint x="1020" y="310" />
            </Array>
          </mxGeometry>
        </mxCell>
        <mxCell id="VUGS7VoSHkl5h5b0ff80-3" style="edgeStyle=orthogonalEdgeStyle;rounded=0;orthogonalLoop=1;jettySize=auto;html=1;entryX=1;entryY=0.5;entryDx=0;entryDy=0;" edge="1" parent="FF0e6TVer2KwmjMnXrAM-1" source="31-FXK8BHHbwHSvv0eOy-0" target="31-FXK8BHHbwHSvv0eOy-10">
          <mxGeometry relative="1" as="geometry">
            <Array as="points">
              <mxPoint x="1020" y="425" />
              <mxPoint x="1020" y="410" />
            </Array>
          </mxGeometry>
        </mxCell>
        <mxCell id="VUGS7VoSHkl5h5b0ff80-4" style="edgeStyle=orthogonalEdgeStyle;rounded=0;orthogonalLoop=1;jettySize=auto;html=1;entryX=1;entryY=0.5;entryDx=0;entryDy=0;" edge="1" parent="FF0e6TVer2KwmjMnXrAM-1" source="31-FXK8BHHbwHSvv0eOy-0" target="31-FXK8BHHbwHSvv0eOy-11">
          <mxGeometry relative="1" as="geometry">
            <Array as="points">
              <mxPoint x="1020" y="425" />
              <mxPoint x="1020" y="520" />
            </Array>
          </mxGeometry>
        </mxCell>
        <mxCell id="VUGS7VoSHkl5h5b0ff80-5" style="edgeStyle=orthogonalEdgeStyle;rounded=0;orthogonalLoop=1;jettySize=auto;html=1;entryX=0.821;entryY=0.59;entryDx=0;entryDy=0;entryPerimeter=0;" edge="1" parent="FF0e6TVer2KwmjMnXrAM-1" source="31-FXK8BHHbwHSvv0eOy-0" target="TLhUrYgqsDNyq-JFWt0F-1">
          <mxGeometry relative="1" as="geometry" />
        </mxCell>
        <mxCell id="VUGS7VoSHkl5h5b0ff80-6" style="edgeStyle=orthogonalEdgeStyle;rounded=0;orthogonalLoop=1;jettySize=auto;html=1;entryX=0.821;entryY=0.731;entryDx=0;entryDy=0;entryPerimeter=0;" edge="1" parent="FF0e6TVer2KwmjMnXrAM-1" source="31-FXK8BHHbwHSvv0eOy-0" target="TLhUrYgqsDNyq-JFWt0F-1">
          <mxGeometry relative="1" as="geometry" />
        </mxCell>
        <mxCell id="VUGS7VoSHkl5h5b0ff80-7" style="edgeStyle=orthogonalEdgeStyle;rounded=0;orthogonalLoop=1;jettySize=auto;html=1;entryX=0.833;entryY=0.872;entryDx=0;entryDy=0;entryPerimeter=0;" edge="1" parent="FF0e6TVer2KwmjMnXrAM-1" source="31-FXK8BHHbwHSvv0eOy-0" target="TLhUrYgqsDNyq-JFWt0F-1">
          <mxGeometry relative="1" as="geometry" />
        </mxCell>
        <mxCell id="31-FXK8BHHbwHSvv0eOy-0" value="ADM" style="shape=umlActor;verticalLabelPosition=bottom;verticalAlign=top;html=1;outlineConnect=0;" vertex="1" parent="FF0e6TVer2KwmjMnXrAM-1">
          <mxGeometry x="1090" y="395" width="30" height="60" as="geometry" />
        </mxCell>
        <mxCell id="31-FXK8BHHbwHSvv0eOy-8" value="LOGIN" style="ellipse;whiteSpace=wrap;html=1;" vertex="1" parent="FF0e6TVer2KwmjMnXrAM-1">
          <mxGeometry x="660" y="180" width="149" height="80" as="geometry" />
        </mxCell>
        <mxCell id="31-FXK8BHHbwHSvv0eOy-9" value="Gerenciamento de Agendamentos" style="ellipse;whiteSpace=wrap;html=1;" vertex="1" parent="FF0e6TVer2KwmjMnXrAM-1">
          <mxGeometry x="660" y="270" width="149" height="80" as="geometry" />
        </mxCell>
        <mxCell id="31-FXK8BHHbwHSvv0eOy-10" value="Gerenciamento de Dados" style="ellipse;whiteSpace=wrap;html=1;" vertex="1" parent="FF0e6TVer2KwmjMnXrAM-1">
          <mxGeometry x="660" y="370" width="149" height="80" as="geometry" />
        </mxCell>
        <mxCell id="31-FXK8BHHbwHSvv0eOy-11" value="Gerenciamento de agenda" style="ellipse;whiteSpace=wrap;html=1;" vertex="1" parent="FF0e6TVer2KwmjMnXrAM-1">
          <mxGeometry x="660" y="480" width="149" height="80" as="geometry" />
        </mxCell>
        <mxCell id="k-YsvflaPceuDRTtSpBp-0" value="Confirmação de agendamento" style="ellipse;whiteSpace=wrap;html=1;" vertex="1" parent="FF0e6TVer2KwmjMnXrAM-1">
          <mxGeometry x="660" y="585" width="149" height="80" as="geometry" />
        </mxCell>
        <mxCell id="eMqS_DLgIW_ZDtIUMHxF-1" value="&lt;span style=&quot;font-family: &amp;#34;helvetica&amp;#34;&quot;&gt;Gerenciamento de Usuário&lt;/span&gt;" style="ellipse;whiteSpace=wrap;html=1;" vertex="1" parent="FF0e6TVer2KwmjMnXrAM-1">
          <mxGeometry x="660" y="690" width="149" height="80" as="geometry" />
        </mxCell>
        <mxCell id="eMqS_DLgIW_ZDtIUMHxF-2" value="Gerenciamento de Procedimentos" style="ellipse;whiteSpace=wrap;html=1;" vertex="1" parent="FF0e6TVer2KwmjMnXrAM-1">
          <mxGeometry x="660" y="800" width="149" height="80" as="geometry" />
        </mxCell>
      </root>
    </mxGraphModel>
  </diagram>
</mxfile>
